<?xml version="1.0" encoding="iso-8859-1"?>
<!-- Generator: Adobe Illustrator 16.0.0, SVG Export Plug-In . SVG Version: 6.00 Build 0)  -->
<!DOCTYPE svg PUBLIC "-//W3C//DTD SVG 1.1//EN" "http://www.w3.org/Graphics/SVG/1.1/DTD/svg11.dtd">
<svg version="1.1" id="Capa_1" xmlns="http://www.w3.org/2000/svg" xmlns:xlink="http://www.w3.org/1999/xlink" x="0px" y="0px"
	 width="27.939px" height="27.94px" viewBox="0 0 27.939 27.94" style="enable-background:new 0 0 27.939 27.94;"
	 xml:space="preserve" fill="#8B8B8B">
<g>
	<g>
		<path d="M25.641,24.697H2.297C1.03,24.697,0,23.667,0,22.4V5.54c0-1.267,1.03-2.297,2.297-2.297h5.188
			c1.267,0,2.297,1.03,2.297,2.297v1.297c0,0.161,0.136,0.297,0.297,0.297h15.563c1.267,0,2.297,1.03,2.297,2.297V22.4
			C27.938,23.666,26.907,24.697,25.641,24.697z M2.297,5.243C2.136,5.243,2,5.379,2,5.54V22.4c0,0.161,0.136,0.297,0.297,0.297
			h23.343c0.162,0,0.298-0.136,0.298-0.297V9.431c0-0.161-0.136-0.297-0.298-0.297H10.078c-1.267,0-2.297-1.03-2.297-2.297V5.54
			c0-0.161-0.136-0.297-0.297-0.297H2.297z"/>
	</g>
</g>
<g>
</g>
<g>
</g>
<g>
</g>
<g>
</g>
<g>
</g>
<g>
</g>
<g>
</g>
<g>
</g>
<g>
</g>
<g>
</g>
<g>
</g>
<g>
</g>
<g>
</g>
<g>
</g>
<g>
</g>
</svg>
