<svg xmlns="http://www.w3.org/2000/svg" width="90" height="90" viewBox="0 0 90 90">
  <g id="facebook_2_" data-name="facebook (2)" transform="translate(0)">
    <path id="Path_11" data-name="Path 11" d="M85.032,0H4.963A4.967,4.967,0,0,0,0,4.968V85.036A4.967,4.967,0,0,0,4.968,90H85.032A4.967,4.967,0,0,0,90,85.034V4.964A4.967,4.967,0,0,0,85.032,0Zm0,0" transform="translate(0 0)" fill="#4267b2"/>
    <path id="Path_12" data-name="Path 12" d="M232.752,153.732v-34.8h11.733l1.758-13.623H232.752V96.628c0-3.935,1.092-6.617,6.735-6.617h7.151V77.86a96.137,96.137,0,0,0-10.48-.536c-10.371,0-17.469,6.328-17.469,17.954V105.3H207v13.623h11.689v34.8Zm0,0" transform="translate(-170.614 -63.732)" fill="#fff"/>
  </g>
</svg>
