<svg xmlns="http://www.w3.org/2000/svg" width="85.5" height="85.5" viewBox="0 0 85.5 85.5">
  <g id="Group_44" data-name="Group 44" transform="translate(0 -715)">
    <g id="search" transform="translate(0 715)">
      <path id="Path_3" data-name="Path 3" d="M18.949,166.847l-2.976,11.11-10.878.23a42.825,42.825,0,0,1-.315-39.919h0l9.684,1.775,4.242,9.626a25.513,25.513,0,0,0,.24,17.177Z" transform="translate(0 -115.178)" fill="#fbbb00"/>
      <path id="Path_4" data-name="Path 4" d="M302.691,208.176a42.734,42.734,0,0,1-15.24,41.324l0,0-12.2-.622L273.525,238.1a25.479,25.479,0,0,0,10.962-13.01h-22.86V208.176h41.063Z" transform="translate(-217.938 -173.412)" fill="#518ef8"/>
      <path id="Path_5" data-name="Path 5" d="M94.925,333.826l0,0a42.764,42.764,0,0,1-64.419-13.079l13.854-11.34A25.425,25.425,0,0,0,81,322.426Z" transform="translate(-25.414 -257.74)" fill="#28b446"/>
      <path id="Path_6" data-name="Path 6" d="M93.881,9.842,80.032,21.18A25.422,25.422,0,0,0,42.553,34.491L28.626,23.09h0A42.759,42.759,0,0,1,93.881,9.842Z" transform="translate(-23.844)" fill="#f14336"/>
    </g>
  </g>
</svg>
