<svg xmlns="http://www.w3.org/2000/svg" width="262" height="167.45" viewBox="0 0 262 167.45" fill="#8B8B8B">
  <g id="group" transform="translate(1.5 -90.75)">
    <g id="Group_121" data-name="Group 121" transform="translate(0 92.25)">
      <path id="Path_182" data-name="Path 182" d="M224,164.61a29.569,29.569,0,1,0-33.925,0A51.233,51.233,0,0,0,172.6,174.859a66.3,66.3,0,0,0-23.983-13.068,37.461,37.461,0,1,0-38.742,0,66.847,66.847,0,0,0-23.727,12.914,51.65,51.65,0,0,0-17.27-10.044,29.569,29.569,0,1,0-33.925,0A51.9,51.9,0,0,0,0,213.7v3.382a.22.22,0,0,0,.2.2H62.88a68.927,68.927,0,0,0-.564,8.661v3.485A27.251,27.251,0,0,0,89.579,256.7h79.432a27.251,27.251,0,0,0,27.263-27.263v-3.485a68.928,68.928,0,0,0-.564-8.661H258.8a.22.22,0,0,0,.2-.2V213.7A52.1,52.1,0,0,0,224,164.61Zm-38.332-24.24a21.37,21.37,0,1,1,21.78,21.37h-.82A21.339,21.339,0,0,1,185.666,140.371ZM99.879,129.711a29.262,29.262,0,1,1,30.953,29.211H127.45A29.3,29.3,0,0,1,99.879,129.711Zm-69.49,10.659a21.37,21.37,0,1,1,21.78,21.37h-.82A21.373,21.373,0,0,1,30.389,140.371Zm33.925,68.67H8.3a43.786,43.786,0,0,1,43.15-39.1h.615A43.331,43.331,0,0,1,80,180.343,67.286,67.286,0,0,0,64.314,209.041Zm123.658,20.4A19.093,19.093,0,0,1,168.909,248.5H89.476a19.093,19.093,0,0,1-19.064-19.064v-3.485a58.867,58.867,0,0,1,57.037-58.78c.564.051,1.179.051,1.742.051s1.179,0,1.742-.051a58.867,58.867,0,0,1,57.037,58.78Zm6.1-20.4a67.109,67.109,0,0,0-15.528-28.493,43.54,43.54,0,0,1,28.186-10.608h.615a43.786,43.786,0,0,1,43.15,39.1Z" transform="translate(0 -92.25)" stroke="#8B8B8B" stroke-width="3"/>
    </g>
  </g>
</svg>
