<svg xmlns="http://www.w3.org/2000/svg" width="55.999" height="56" viewBox="0 0 55.999 56">
  <g id="link" transform="translate(0.994 1)">
    <g id="Group_136" data-name="Group 136" transform="translate(-0.993 -1)">
      <g id="Group_135" data-name="Group 135" transform="translate(0 0)">
        <path id="Path_199" data-name="Path 199" d="M22.222,200.2l-6.6,6.6a7,7,0,1,1-9.9-9.9l13.2-13.2a7,7,0,0,1,9.9,0,2.333,2.333,0,1,0,3.3-3.3,11.665,11.665,0,0,0-16.5,0l-13.2,13.2a11.666,11.666,0,0,0,16.5,16.5l6.6-6.6a2.333,2.333,0,1,0-3.3-3.3Z" transform="translate(0.993 -157.519)" fill="#34e234"/>
        <path id="Path_200" data-name="Path 200" d="M221.634,2.416a11.668,11.668,0,0,0-16.5,0l-7.917,7.917a2.333,2.333,0,1,0,3.3,3.3l7.917-7.917a7,7,0,1,1,9.9,9.9L203.817,30.132a7,7,0,0,1-9.9,0,2.333,2.333,0,0,0-3.3,3.3,11.665,11.665,0,0,0,16.5,0l14.518-14.518A11.665,11.665,0,0,0,221.634,2.416Z" transform="translate(-169.053 1)" fill="#34e234"/>
      </g>
    </g>
  </g>
</svg>
