<svg xmlns="http://www.w3.org/2000/svg" width="281.795" height="212.097" viewBox="0 0 281.795 212.097" fill="#8B8B8B">
  <path id="email" d="M252.658,59.882H26.137A26.166,26.166,0,0,0,0,86.019V242.841a26.166,26.166,0,0,0,26.137,26.137H252.658A26.166,26.166,0,0,0,278.8,242.841V86.019A26.166,26.166,0,0,0,252.658,59.882Zm0,17.425a8.662,8.662,0,0,1,3.339.675L139.4,179.039,22.8,77.981a8.672,8.672,0,0,1,3.339-.675Zm0,174.247H26.137a8.718,8.718,0,0,1-8.713-8.713V96.39L133.688,197.152a8.725,8.725,0,0,0,11.418,0L261.37,96.39V242.841A8.719,8.719,0,0,1,252.658,251.553Z" transform="translate(1.5 -58.382)" stroke="#8B8B8B" stroke-width="3"/>
</svg>
