<svg xmlns="http://www.w3.org/2000/svg" width="48.611" height="64.814" viewBox="0 0 48.611 64.814">
  <g id="pdf" transform="translate(-64)">
    <g id="Group_133" data-name="Group 133" transform="translate(64)">
      <g id="Group_132" data-name="Group 132">
        <path id="Path_194" data-name="Path 194" d="M112.215,13.9,98.712.4a1.349,1.349,0,0,0-.955-.4H69.4A5.406,5.406,0,0,0,64,5.4V59.413a5.406,5.406,0,0,0,5.4,5.4h37.808a5.406,5.406,0,0,0,5.4-5.4V14.853A1.349,1.349,0,0,0,112.215,13.9ZM99.108,4.61,108,13.5h-6.192a2.7,2.7,0,0,1-2.7-2.7Zm10.8,54.8a2.7,2.7,0,0,1-2.7,2.7H69.4a2.7,2.7,0,0,1-2.7-2.7V5.4a2.7,2.7,0,0,1,2.7-2.7H96.407v8.1a5.406,5.406,0,0,0,5.4,5.4h8.1Z" transform="translate(-64)" fill="#34e2d0"/>
        <path id="Path_195" data-name="Path 195" d="M151.088,188.7a39.127,39.127,0,0,1-3.229-2.786c-1.029-1.029-1.945-2.025-2.741-2.975,1.242-3.839,1.787-5.818,1.787-6.873,0-4.482-1.619-5.4-4.051-5.4-1.847,0-4.051.96-4.051,5.53,0,2.015,1.1,4.461,3.291,7.3-.535,1.634-1.164,3.518-1.871,5.643-.34,1.019-.709,1.963-1.1,2.836-.318.141-.626.285-.924.434-1.073.537-2.093,1.019-3.038,1.468-4.312,2.041-7.16,3.392-7.16,6.058,0,1.936,2.1,3.134,4.051,3.134,2.511,0,6.3-3.353,9.071-9a53.722,53.722,0,0,1,9.269-2.5c2.26,1.738,4.756,3.4,5.966,3.4,3.348,0,4.051-1.936,4.051-3.559,0-3.192-3.647-3.192-5.4-3.192A31.986,31.986,0,0,0,151.088,188.7Zm-19.037,11.671a2.134,2.134,0,0,1-1.35-.434c0-.957,2.855-2.31,5.616-3.618l.534-.252C134.823,199.009,132.817,200.373,132.051,200.373ZM141.5,176.2c0-2.83.878-2.83,1.35-2.83.955,0,1.35,0,1.35,2.7a21.65,21.65,0,0,1-1.075,4.217A8.3,8.3,0,0,1,141.5,176.2Zm1.035,14.513q.127-.352.245-.712c.5-1.5.952-2.854,1.354-4.069q.841.926,1.812,1.9c.253.253.881.823,1.717,1.536C146,189.723,144.231,190.173,142.538,190.71Zm15.168.7c0,.607,0,.858-1.253.866a9.953,9.953,0,0,1-2.268-1.295c.381-.042.662-.063.82-.063C157,190.921,157.567,191.116,157.706,191.412Z" transform="translate(-119.898 -149.061)" fill="#34e2d0"/>
      </g>
    </g>
  </g>
</svg>
