<svg id="play-button" xmlns="http://www.w3.org/2000/svg" width="65" height="65" viewBox="0 0 65 65">
  <path id="Path_192" data-name="Path 192" d="M158.282,157.135a2.03,2.03,0,0,1-2.031-2.031V127.025a2.031,2.031,0,0,1,3.045-1.759L183.671,139.3a2.03,2.03,0,0,1,0,3.519L159.3,156.863A2.035,2.035,0,0,1,158.282,157.135Zm2.031-26.6v21.05l18.273-10.531Z" transform="translate(-135.938 -108.744)" fill="#ff5b5b"/>
  <path id="Path_193" data-name="Path 193" d="M32.5,65A32.5,32.5,0,1,1,65,32.5,32.537,32.537,0,0,1,32.5,65Zm0-60.937A28.438,28.438,0,1,0,60.937,32.5,28.47,28.47,0,0,0,32.5,4.063Z" fill="#ff5b5b"/>
</svg>
