<svg xmlns="http://www.w3.org/2000/svg" width="48.294" height="51.69" viewBox="0 0 48.294 51.69" fill="#8B8B8B">
  <g id="gear" transform="translate(113.5 104.499)">
    <g id="Group_24" data-name="Group 24" transform="translate(-113 -103.999)">
      <path id="Path_19" data-name="Path 19" d="M44.873,20.025l-3.32-.6a20.918,20.918,0,0,0-1.334-3.452l1.956-2.933A3.29,3.29,0,0,0,41.86,9L38.916,5.846a2.806,2.806,0,0,0-2.065-.921,2.742,2.742,0,0,0-1.689.582L32.415,7.6a17.872,17.872,0,0,0-3.339-1.472l-.553-3.516A2.986,2.986,0,0,0,25.638,0H21.478a2.986,2.986,0,0,0-2.885,2.616l-.573,3.6A17.638,17.638,0,0,0,14.81,7.668l-2.717-2.1a2.773,2.773,0,0,0-3.764.339L5.375,9.065A3.3,3.3,0,0,0,5.058,13.1l1.976,2.976A20.45,20.45,0,0,0,5.72,19.538l-3.28.593A3.074,3.074,0,0,0,0,23.223v4.458a3.074,3.074,0,0,0,2.44,3.092l3.359.614a20.385,20.385,0,0,0,1.354,3.441l-1.946,2.9a3.29,3.29,0,0,0,.316,4.034L8.467,44.92a2.806,2.806,0,0,0,2.065.921,2.742,2.742,0,0,0,1.689-.582L15,43.141a18.007,18.007,0,0,0,3.122,1.377l.553,3.558a2.986,2.986,0,0,0,2.885,2.616h4.169a2.986,2.986,0,0,0,2.885-2.616l.563-3.558a18.066,18.066,0,0,0,3.221-1.43l2.737,2.1a2.77,2.77,0,0,0,1.7.582h0a2.806,2.806,0,0,0,2.065-.921L41.84,41.69a3.3,3.3,0,0,0,.316-4.034L40.2,34.712a20.769,20.769,0,0,0,1.334-3.452l3.32-.593a3.074,3.074,0,0,0,2.44-3.092V23.117A3.038,3.038,0,0,0,44.873,20.025Zm-.227,7.55a.269.269,0,0,1-.217.275l-4.149.741a1.366,1.366,0,0,0-1.067,1.048,17.644,17.644,0,0,1-1.719,4.437,1.518,1.518,0,0,0,.059,1.557l2.44,3.685a.3.3,0,0,1-.03.36l-2.944,3.156a.242.242,0,0,1-.188.085.232.232,0,0,1-.148-.053L33.255,40.25a1.261,1.261,0,0,0-1.452-.064,15.25,15.25,0,0,1-4.14,1.843,1.373,1.373,0,0,0-.978,1.144l-.7,4.447a.262.262,0,0,1-.257.233H21.567a.262.262,0,0,1-.257-.233l-.692-4.447a1.388,1.388,0,0,0-.978-1.144A15.823,15.823,0,0,1,15.59,40.25a1.3,1.3,0,0,0-.672-.191,1.243,1.243,0,0,0-.771.265L10.69,42.961a.281.281,0,0,1-.148.053.255.255,0,0,1-.188-.085L7.41,39.774a.3.3,0,0,1-.03-.36L9.81,35.76a1.537,1.537,0,0,0,.059-1.567,17.465,17.465,0,0,1-1.739-4.426,1.393,1.393,0,0,0-1.067-1.048l-4.179-.762a.269.269,0,0,1-.217-.275V23.223a.269.269,0,0,1,.217-.275L7,22.206a1.376,1.376,0,0,0,1.077-1.059A17.643,17.643,0,0,1,9.771,16.7,1.5,1.5,0,0,0,9.7,15.154l-2.46-3.706a.3.3,0,0,1,.03-.36l2.944-3.156a.242.242,0,0,1,.188-.085.232.232,0,0,1,.148.053l3.408,2.6a1.277,1.277,0,0,0,1.462.064,15.118,15.118,0,0,1,4.13-1.864,1.416,1.416,0,0,0,.978-1.144l.711-4.479a.262.262,0,0,1,.257-.233h4.159a.262.262,0,0,1,.257.233L26.606,7.5a1.4,1.4,0,0,0,.988,1.154,15.453,15.453,0,0,1,4.238,1.864,1.262,1.262,0,0,0,1.452-.064l3.408-2.626a.281.281,0,0,1,.148-.053.255.255,0,0,1,.188.085l2.944,3.156a.3.3,0,0,1,.03.36l-2.44,3.674A1.517,1.517,0,0,0,37.5,16.6a17.643,17.643,0,0,1,1.719,4.437,1.35,1.35,0,0,0,1.067,1.048l4.149.752a.269.269,0,0,1,.217.275v4.458Z" transform="translate(0 -0.001)" stroke="#8B8B8B" stroke-width="1"/>
      <path id="Path_20" data-name="Path 20" d="M148.57,136a12.47,12.47,0,1,0,12.47,12.47A12.478,12.478,0,0,0,148.57,136Zm0,21.681a9.211,9.211,0,1,1,9.211-9.211A9.217,9.217,0,0,1,148.57,157.682Z" transform="translate(-124.919 -123.131)" stroke="#8B8B8B" stroke-width="1"/>
    </g>
  </g>
</svg>
