<svg xmlns="http://www.w3.org/2000/svg" width="208.474" height="206.016" viewBox="0 0 208.474 206.016" fill="#8B8B8B">
  <g id="idea" transform="translate(1.516 -0.417)">
    <path id="Path_183" data-name="Path 183" d="M127.218,68.95h-.174A60.334,60.334,0,0,0,84.6,86.218a59.449,59.449,0,0,0,3.6,87.863c2.086,1.693,5.585,7.086,5.585,24.19v27.523a3.793,3.793,0,0,0,3.793,3.793h59.108a3.793,3.793,0,0,0,3.793-3.793V198.271c0-.03,0-.059,0-.088s0-.059,0-.089c0-17.261,3.5-22.676,5.589-24.368,13.714-11.129,21.267-27.193,21.267-45.232A58.8,58.8,0,0,0,169.66,86.217,60.334,60.334,0,0,0,127.218,68.95ZM152.891,222H101.369V202.064h35.89a3.774,3.774,0,0,0,.51.039,3.667,3.667,0,0,0,.51-.039h14.613Zm-33.176-80.466h14.9c-.356,14.339-.6,38.746-.639,52.944H120.35C120.309,181.332,120.077,156.265,119.716,141.534Zm41.571,26.3c-5.2,4.218-7.938,12.961-8.337,26.643H141.567c.042-15.563.318-39.46.64-52.944h8.11c6.8,0,12.539-6.02,12.539-13.146a12.865,12.865,0,0,0-12.539-12.845c-6.236,0-13.507,3.9-15.211,14.864-.084.542-.165,1.773-.243,3.541H119.477c-.08-1.841-.164-3.125-.252-3.693-1.123-7.258-5.707-15.014-15.208-15.014-6.8,0-12.537,6.02-12.537,13.147s5.741,13.146,12.537,13.146h8.111c.322,13.549.6,37.419.638,52.944H101.3c-.422-13.46-3.152-22.089-8.328-26.288a50.694,50.694,0,0,1-18.463-39.7,51.27,51.27,0,0,1,15.4-36.865,53.422,53.422,0,0,1,74.426,0,51.271,51.271,0,0,1,15.4,36.865A49.667,49.667,0,0,1,161.287,167.835Zm-18.846-33.886c.053-1.2.107-2.02.16-2.379,1.143-7.345,5.324-8.441,7.716-8.441a5.247,5.247,0,0,1,4.954,5.259c0,2.91-2.361,5.56-4.954,5.56h-7.876Zm-30.546,0h-7.879c-2.592,0-4.951-2.65-4.951-5.56s2.36-5.561,4.951-5.561c5.554,0,7.216,5.381,7.711,8.589C111.782,131.79,111.839,132.663,111.895,133.949Z" transform="translate(-24.621 -24.654)" stroke="#8B8B8B" stroke-width="3"/>
    <path id="Path_184" data-name="Path 184" d="M203.32,40.027a3.788,3.788,0,0,0,4.98-1.992L221.357,7.568a3.793,3.793,0,1,0-6.972-2.988L201.328,35.047A3.792,3.792,0,0,0,203.32,40.027Z" transform="translate(-73.95 -0.128)" stroke="#8B8B8B" stroke-width="3"/>
    <path id="Path_185" data-name="Path 185" d="M104.76,37.911a3.793,3.793,0,0,0,7.044-2.818L99.492,4.318a3.793,3.793,0,1,0-7.044,2.817Z" transform="translate(-33.909 0)" stroke="#8B8B8B" stroke-width="3"/>
    <path id="Path_186" data-name="Path 186" d="M2.658,100.524l30.463,13.065a3.793,3.793,0,0,0,2.991-6.972L5.648,93.552a3.793,3.793,0,1,0-2.99,6.972Z" transform="translate(-0.132 -33.591)" stroke="#8B8B8B" stroke-width="3"/>
    <path id="Path_187" data-name="Path 187" d="M33.161,203.54,2.384,215.859A3.792,3.792,0,1,0,5.2,222.9l30.777-12.318a3.792,3.792,0,1,0-2.818-7.042Z" transform="translate(0 -74.066)" stroke="#8B8B8B" stroke-width="3"/>
    <path id="Path_188" data-name="Path 188" d="M300.193,216.306,269.719,203.25a3.793,3.793,0,0,0-2.988,6.973L297.2,223.279a3.793,3.793,0,0,0,2.988-6.973Z" transform="translate(-97.277 -73.946)" stroke="#8B8B8B" stroke-width="3"/>
    <path id="Path_189" data-name="Path 189" d="M268.095,114a3.782,3.782,0,0,0,1.408-.273l30.785-12.321a3.793,3.793,0,0,0-2.819-7.043l-30.785,12.321a3.794,3.794,0,0,0,1.41,7.316Z" transform="translate(-97.229 -33.903)" stroke="#8B8B8B" stroke-width="3"/>
  </g>
</svg>
